<mxfile host="app.diagrams.net" modified="2024-06-11T23:53:03.341Z" agent="Mozilla/5.0 (X11; Linux x86_64) AppleWebKit/537.36 (KHTML, like Gecko) Chrome/125.0.0.0 Safari/537.36" etag="Rd2TdCvAQo8aac-18BOd" version="24.5.2" type="device" pages="2">
  <diagram id="C5RBs43oDa-KdzZeNtuy" name="Page-1">
    <mxGraphModel dx="992" dy="593" grid="1" gridSize="10" guides="1" tooltips="1" connect="1" arrows="1" fold="1" page="1" pageScale="1" pageWidth="827" pageHeight="1169" math="0" shadow="0">
      <root>
        <mxCell id="WIyWlLk6GJQsqaUBKTNV-0" />
        <mxCell id="WIyWlLk6GJQsqaUBKTNV-1" parent="WIyWlLk6GJQsqaUBKTNV-0" />
        <mxCell id="WqETW-UkKWTi9ONmMpsu-0" value="&lt;font style=&quot;font-size: 25px;&quot;&gt;coordinator&lt;/font&gt;" style="rounded=1;whiteSpace=wrap;html=1;fillColor=none;" parent="WIyWlLk6GJQsqaUBKTNV-1" vertex="1">
          <mxGeometry x="160" y="80" width="160" height="40" as="geometry" />
        </mxCell>
        <mxCell id="WqETW-UkKWTi9ONmMpsu-1" value="&lt;font style=&quot;font-size: 25px;&quot;&gt;worker&lt;/font&gt;" style="rounded=1;whiteSpace=wrap;html=1;fillColor=none;" parent="WIyWlLk6GJQsqaUBKTNV-1" vertex="1">
          <mxGeometry x="480" y="80" width="160" height="40" as="geometry" />
        </mxCell>
        <mxCell id="WqETW-UkKWTi9ONmMpsu-2" value="" style="endArrow=classic;html=1;rounded=0;exitX=0.5;exitY=1;exitDx=0;exitDy=0;dashed=1;" parent="WIyWlLk6GJQsqaUBKTNV-1" source="WqETW-UkKWTi9ONmMpsu-0" edge="1">
          <mxGeometry width="50" height="50" relative="1" as="geometry">
            <mxPoint x="390" y="320" as="sourcePoint" />
            <mxPoint x="240" y="460" as="targetPoint" />
          </mxGeometry>
        </mxCell>
        <mxCell id="WqETW-UkKWTi9ONmMpsu-3" value="" style="endArrow=classic;html=1;rounded=0;exitX=0.5;exitY=1;exitDx=0;exitDy=0;dashed=1;" parent="WIyWlLk6GJQsqaUBKTNV-1" source="WqETW-UkKWTi9ONmMpsu-1" edge="1">
          <mxGeometry width="50" height="50" relative="1" as="geometry">
            <mxPoint x="559.5" y="170" as="sourcePoint" />
            <mxPoint x="560" y="460" as="targetPoint" />
          </mxGeometry>
        </mxCell>
        <mxCell id="WqETW-UkKWTi9ONmMpsu-5" value="" style="endArrow=classic;html=1;rounded=0;" parent="WIyWlLk6GJQsqaUBKTNV-1" edge="1">
          <mxGeometry width="50" height="50" relative="1" as="geometry">
            <mxPoint x="560" y="140" as="sourcePoint" />
            <mxPoint x="240" y="190" as="targetPoint" />
          </mxGeometry>
        </mxCell>
        <mxCell id="WqETW-UkKWTi9ONmMpsu-6" value="&lt;font style=&quot;font-size: 16px;&quot;&gt;SchedTask&lt;/font&gt;" style="text;html=1;align=center;verticalAlign=middle;whiteSpace=wrap;rounded=0;" parent="WIyWlLk6GJQsqaUBKTNV-1" vertex="1">
          <mxGeometry x="350" y="130" width="90" height="40" as="geometry" />
        </mxCell>
        <mxCell id="WqETW-UkKWTi9ONmMpsu-7" value="" style="endArrow=classic;html=1;rounded=0;" parent="WIyWlLk6GJQsqaUBKTNV-1" edge="1">
          <mxGeometry width="50" height="50" relative="1" as="geometry">
            <mxPoint x="240" y="190" as="sourcePoint" />
            <mxPoint x="560" y="240" as="targetPoint" />
          </mxGeometry>
        </mxCell>
        <mxCell id="WqETW-UkKWTi9ONmMpsu-8" value="&lt;font style=&quot;font-size: 16px;&quot;&gt;HasTask: false&lt;/font&gt;" style="text;html=1;align=center;verticalAlign=middle;whiteSpace=wrap;rounded=0;" parent="WIyWlLk6GJQsqaUBKTNV-1" vertex="1">
          <mxGeometry x="390" y="190" width="130" height="30" as="geometry" />
        </mxCell>
        <mxCell id="WqETW-UkKWTi9ONmMpsu-10" value="" style="endArrow=classic;html=1;rounded=0;" parent="WIyWlLk6GJQsqaUBKTNV-1" edge="1">
          <mxGeometry width="50" height="50" relative="1" as="geometry">
            <mxPoint x="560" y="240" as="sourcePoint" />
            <mxPoint x="660" y="240" as="targetPoint" />
          </mxGeometry>
        </mxCell>
        <mxCell id="WqETW-UkKWTi9ONmMpsu-11" value="&lt;font style=&quot;font-size: 16px;&quot;&gt;exit&lt;/font&gt;" style="text;html=1;align=center;verticalAlign=middle;whiteSpace=wrap;rounded=0;" parent="WIyWlLk6GJQsqaUBKTNV-1" vertex="1">
          <mxGeometry x="660" y="220" width="60" height="40" as="geometry" />
        </mxCell>
        <mxCell id="WqETW-UkKWTi9ONmMpsu-14" value="" style="endArrow=classic;html=1;rounded=0;" parent="WIyWlLk6GJQsqaUBKTNV-1" edge="1">
          <mxGeometry width="50" height="50" relative="1" as="geometry">
            <mxPoint x="240" y="240" as="sourcePoint" />
            <mxPoint x="560" y="290" as="targetPoint" />
          </mxGeometry>
        </mxCell>
        <mxCell id="WqETW-UkKWTi9ONmMpsu-15" value="&lt;font style=&quot;font-size: 16px;&quot;&gt;HasTask: true, Task: ...&lt;/font&gt;" style="text;html=1;align=center;verticalAlign=middle;whiteSpace=wrap;rounded=0;" parent="WIyWlLk6GJQsqaUBKTNV-1" vertex="1">
          <mxGeometry x="290" y="270" width="170" height="30" as="geometry" />
        </mxCell>
        <mxCell id="WqETW-UkKWTi9ONmMpsu-16" value="" style="endArrow=classic;html=1;rounded=0;" parent="WIyWlLk6GJQsqaUBKTNV-1" edge="1">
          <mxGeometry width="50" height="50" relative="1" as="geometry">
            <mxPoint x="240" y="190" as="sourcePoint" />
            <mxPoint x="240" y="240" as="targetPoint" />
          </mxGeometry>
        </mxCell>
        <mxCell id="WqETW-UkKWTi9ONmMpsu-17" value="&lt;font style=&quot;font-size: 16px;&quot;&gt;schedule a task&lt;/font&gt;" style="text;html=1;align=center;verticalAlign=middle;whiteSpace=wrap;rounded=0;" parent="WIyWlLk6GJQsqaUBKTNV-1" vertex="1">
          <mxGeometry x="110" y="200" width="130" height="30" as="geometry" />
        </mxCell>
        <mxCell id="WqETW-UkKWTi9ONmMpsu-18" value="" style="endArrow=classic;html=1;rounded=0;" parent="WIyWlLk6GJQsqaUBKTNV-1" edge="1">
          <mxGeometry width="50" height="50" relative="1" as="geometry">
            <mxPoint x="560" y="290" as="sourcePoint" />
            <mxPoint x="560" y="370" as="targetPoint" />
          </mxGeometry>
        </mxCell>
        <mxCell id="WqETW-UkKWTi9ONmMpsu-19" value="&lt;font style=&quot;font-size: 16px;&quot;&gt;do task&lt;/font&gt;" style="text;html=1;align=center;verticalAlign=middle;whiteSpace=wrap;rounded=0;" parent="WIyWlLk6GJQsqaUBKTNV-1" vertex="1">
          <mxGeometry x="500" y="310" width="60" height="30" as="geometry" />
        </mxCell>
        <mxCell id="WqETW-UkKWTi9ONmMpsu-20" value="" style="endArrow=classic;html=1;rounded=0;" parent="WIyWlLk6GJQsqaUBKTNV-1" edge="1">
          <mxGeometry width="50" height="50" relative="1" as="geometry">
            <mxPoint x="560" y="370" as="sourcePoint" />
            <mxPoint x="240" y="420" as="targetPoint" />
          </mxGeometry>
        </mxCell>
        <mxCell id="WqETW-UkKWTi9ONmMpsu-21" value="&lt;font style=&quot;font-size: 16px;&quot;&gt;TaskDone&lt;/font&gt;" style="text;html=1;align=center;verticalAlign=middle;whiteSpace=wrap;rounded=0;" parent="WIyWlLk6GJQsqaUBKTNV-1" vertex="1">
          <mxGeometry x="350" y="360" width="90" height="40" as="geometry" />
        </mxCell>
        <mxCell id="WqETW-UkKWTi9ONmMpsu-22" value="" style="curved=1;endArrow=classic;html=1;rounded=0;dashed=1;" parent="WIyWlLk6GJQsqaUBKTNV-1" edge="1">
          <mxGeometry width="50" height="50" relative="1" as="geometry">
            <mxPoint x="560" y="370" as="sourcePoint" />
            <mxPoint x="560" y="140" as="targetPoint" />
            <Array as="points">
              <mxPoint x="670" y="270" />
            </Array>
          </mxGeometry>
        </mxCell>
        <mxCell id="irUcWpLWOeqc5E-UaGE2-0" value="" style="endArrow=none;dashed=1;html=1;dashPattern=1 3;strokeWidth=2;rounded=0;" edge="1" parent="WIyWlLk6GJQsqaUBKTNV-1">
          <mxGeometry width="50" height="50" relative="1" as="geometry">
            <mxPoint x="390" y="330" as="sourcePoint" />
            <mxPoint x="440" y="280" as="targetPoint" />
          </mxGeometry>
        </mxCell>
      </root>
    </mxGraphModel>
  </diagram>
  <diagram id="kgfIeF65BGlyFkBB85H6" name="Page-2">
    <mxGraphModel dx="992" dy="593" grid="1" gridSize="10" guides="1" tooltips="1" connect="1" arrows="1" fold="1" page="1" pageScale="1" pageWidth="827" pageHeight="1169" math="0" shadow="0">
      <root>
        <mxCell id="0" />
        <mxCell id="1" parent="0" />
        <mxCell id="NCDacaaBQbnlVHtVQUsy-1" value="&lt;font style=&quot;font-size: 25px;&quot;&gt;maps&lt;/font&gt;" style="rounded=1;whiteSpace=wrap;html=1;fillColor=none;" parent="1" vertex="1">
          <mxGeometry x="40" y="240" width="120" height="60" as="geometry" />
        </mxCell>
        <mxCell id="NCDacaaBQbnlVHtVQUsy-2" value="&lt;font style=&quot;font-size: 25px;&quot;&gt;running&lt;/font&gt;" style="rounded=1;whiteSpace=wrap;html=1;fillColor=none;" parent="1" vertex="1">
          <mxGeometry x="370" y="240" width="120" height="60" as="geometry" />
        </mxCell>
        <mxCell id="NCDacaaBQbnlVHtVQUsy-3" value="" style="endArrow=classic;html=1;rounded=0;exitX=1;exitY=0.25;exitDx=0;exitDy=0;entryX=0;entryY=0.25;entryDx=0;entryDy=0;" parent="1" source="NCDacaaBQbnlVHtVQUsy-1" target="NCDacaaBQbnlVHtVQUsy-2" edge="1">
          <mxGeometry width="50" height="50" relative="1" as="geometry">
            <mxPoint x="310" y="330" as="sourcePoint" />
            <mxPoint x="360" y="280" as="targetPoint" />
          </mxGeometry>
        </mxCell>
        <mxCell id="NCDacaaBQbnlVHtVQUsy-4" value="" style="endArrow=classic;html=1;rounded=0;entryX=1;entryY=0.75;entryDx=0;entryDy=0;exitX=0;exitY=0.75;exitDx=0;exitDy=0;" parent="1" source="NCDacaaBQbnlVHtVQUsy-2" target="NCDacaaBQbnlVHtVQUsy-1" edge="1">
          <mxGeometry width="50" height="50" relative="1" as="geometry">
            <mxPoint x="310" y="330" as="sourcePoint" />
            <mxPoint x="180" y="290" as="targetPoint" />
          </mxGeometry>
        </mxCell>
        <mxCell id="NCDacaaBQbnlVHtVQUsy-5" value="&lt;font style=&quot;font-size: 15px;&quot;&gt;schedule a task, setup timer&lt;/font&gt;" style="text;html=1;align=center;verticalAlign=middle;whiteSpace=wrap;rounded=0;" parent="1" vertex="1">
          <mxGeometry x="160" y="220" width="210" height="30" as="geometry" />
        </mxCell>
        <mxCell id="NCDacaaBQbnlVHtVQUsy-6" value="&lt;span style=&quot;font-size: 15px;&quot;&gt;time out&lt;/span&gt;" style="text;html=1;align=center;verticalAlign=middle;whiteSpace=wrap;rounded=0;" parent="1" vertex="1">
          <mxGeometry x="160" y="290" width="210" height="30" as="geometry" />
        </mxCell>
        <mxCell id="NCDacaaBQbnlVHtVQUsy-7" value="" style="endArrow=classic;html=1;rounded=0;exitX=1;exitY=0.5;exitDx=0;exitDy=0;" parent="1" source="NCDacaaBQbnlVHtVQUsy-2" edge="1">
          <mxGeometry width="50" height="50" relative="1" as="geometry">
            <mxPoint x="390" y="330" as="sourcePoint" />
            <mxPoint x="680" y="270" as="targetPoint" />
          </mxGeometry>
        </mxCell>
        <mxCell id="NCDacaaBQbnlVHtVQUsy-9" value="&lt;span style=&quot;font-size: 15px;&quot;&gt;job done, delete&lt;/span&gt;" style="text;html=1;align=center;verticalAlign=middle;whiteSpace=wrap;rounded=0;" parent="1" vertex="1">
          <mxGeometry x="490" y="240" width="190" height="30" as="geometry" />
        </mxCell>
        <mxCell id="NCDacaaBQbnlVHtVQUsy-10" value="&lt;font style=&quot;font-size: 25px;&quot;&gt;reduces&lt;/font&gt;" style="rounded=1;whiteSpace=wrap;html=1;fillColor=none;" parent="1" vertex="1">
          <mxGeometry x="40" y="410" width="120" height="60" as="geometry" />
        </mxCell>
        <mxCell id="NCDacaaBQbnlVHtVQUsy-11" value="&lt;font style=&quot;font-size: 25px;&quot;&gt;running&lt;/font&gt;" style="rounded=1;whiteSpace=wrap;html=1;fillColor=none;" parent="1" vertex="1">
          <mxGeometry x="370" y="410" width="120" height="60" as="geometry" />
        </mxCell>
        <mxCell id="NCDacaaBQbnlVHtVQUsy-12" value="" style="endArrow=classic;html=1;rounded=0;exitX=1;exitY=0.25;exitDx=0;exitDy=0;entryX=0;entryY=0.25;entryDx=0;entryDy=0;" parent="1" source="NCDacaaBQbnlVHtVQUsy-10" target="NCDacaaBQbnlVHtVQUsy-11" edge="1">
          <mxGeometry width="50" height="50" relative="1" as="geometry">
            <mxPoint x="310" y="500" as="sourcePoint" />
            <mxPoint x="360" y="450" as="targetPoint" />
          </mxGeometry>
        </mxCell>
        <mxCell id="NCDacaaBQbnlVHtVQUsy-13" value="" style="endArrow=classic;html=1;rounded=0;entryX=1;entryY=0.75;entryDx=0;entryDy=0;exitX=0;exitY=0.75;exitDx=0;exitDy=0;" parent="1" source="NCDacaaBQbnlVHtVQUsy-11" target="NCDacaaBQbnlVHtVQUsy-10" edge="1">
          <mxGeometry width="50" height="50" relative="1" as="geometry">
            <mxPoint x="310" y="500" as="sourcePoint" />
            <mxPoint x="180" y="460" as="targetPoint" />
          </mxGeometry>
        </mxCell>
        <mxCell id="NCDacaaBQbnlVHtVQUsy-14" value="&lt;font style=&quot;font-size: 15px;&quot;&gt;schedule a task, setup timer&lt;/font&gt;" style="text;html=1;align=center;verticalAlign=middle;whiteSpace=wrap;rounded=0;" parent="1" vertex="1">
          <mxGeometry x="160" y="390" width="210" height="30" as="geometry" />
        </mxCell>
        <mxCell id="NCDacaaBQbnlVHtVQUsy-15" value="&lt;span style=&quot;font-size: 15px;&quot;&gt;time out&lt;/span&gt;" style="text;html=1;align=center;verticalAlign=middle;whiteSpace=wrap;rounded=0;" parent="1" vertex="1">
          <mxGeometry x="160" y="460" width="210" height="30" as="geometry" />
        </mxCell>
        <mxCell id="NCDacaaBQbnlVHtVQUsy-16" value="" style="endArrow=classic;html=1;rounded=0;exitX=1;exitY=0.5;exitDx=0;exitDy=0;" parent="1" source="NCDacaaBQbnlVHtVQUsy-11" edge="1">
          <mxGeometry width="50" height="50" relative="1" as="geometry">
            <mxPoint x="390" y="500" as="sourcePoint" />
            <mxPoint x="680" y="440" as="targetPoint" />
          </mxGeometry>
        </mxCell>
        <mxCell id="NCDacaaBQbnlVHtVQUsy-17" value="&lt;span style=&quot;font-size: 15px;&quot;&gt;job done, delete&lt;/span&gt;" style="text;html=1;align=center;verticalAlign=middle;whiteSpace=wrap;rounded=0;" parent="1" vertex="1">
          <mxGeometry x="490" y="410" width="190" height="30" as="geometry" />
        </mxCell>
        <mxCell id="NCDacaaBQbnlVHtVQUsy-18" value="" style="endArrow=classic;html=1;rounded=0;exitX=0.5;exitY=1;exitDx=0;exitDy=0;entryX=0.5;entryY=0;entryDx=0;entryDy=0;" parent="1" source="NCDacaaBQbnlVHtVQUsy-1" target="NCDacaaBQbnlVHtVQUsy-10" edge="1">
          <mxGeometry width="50" height="50" relative="1" as="geometry">
            <mxPoint x="390" y="470" as="sourcePoint" />
            <mxPoint x="440" y="420" as="targetPoint" />
          </mxGeometry>
        </mxCell>
        <mxCell id="NCDacaaBQbnlVHtVQUsy-19" value="&lt;font style=&quot;font-size: 15px;&quot;&gt;when maps and running are both empty, map-tasks are done. Set mapDone=true and start reduce&lt;/font&gt;" style="text;html=1;align=center;verticalAlign=middle;whiteSpace=wrap;rounded=0;" parent="1" vertex="1">
          <mxGeometry x="110" y="330" width="350" height="50" as="geometry" />
        </mxCell>
        <mxCell id="NCDacaaBQbnlVHtVQUsy-20" value="" style="endArrow=classic;html=1;rounded=0;exitX=0.5;exitY=1;exitDx=0;exitDy=0;entryX=0.214;entryY=0;entryDx=0;entryDy=0;entryPerimeter=0;" parent="1" edge="1">
          <mxGeometry width="50" height="50" relative="1" as="geometry">
            <mxPoint x="99.5" y="470" as="sourcePoint" />
            <mxPoint x="99.92000000000007" y="560" as="targetPoint" />
          </mxGeometry>
        </mxCell>
        <mxCell id="NCDacaaBQbnlVHtVQUsy-22" value="&lt;font style=&quot;font-size: 15px;&quot;&gt;when reduces and running are both empty, reduce-tasks are done. Set reduceDone=true and all tasks are done&lt;/font&gt;" style="text;html=1;align=center;verticalAlign=middle;whiteSpace=wrap;rounded=0;" parent="1" vertex="1">
          <mxGeometry x="100" y="490" width="400" height="50" as="geometry" />
        </mxCell>
        <mxCell id="NCDacaaBQbnlVHtVQUsy-24" value="&lt;font style=&quot;font-size: 20px;&quot;&gt;&lt;font style=&quot;forced-color-adjust: none; color: rgb(0, 0, 0); font-family: Helvetica; font-style: normal; font-variant-ligatures: normal; font-variant-caps: normal; font-weight: 400; letter-spacing: normal; orphans: 2; text-align: center; text-indent: 0px; text-transform: none; widows: 2; word-spacing: 0px; -webkit-text-stroke-width: 0px; white-space: normal; background-color: rgb(251, 251, 251); text-decoration-thickness: initial; text-decoration-style: initial; text-decoration-color: initial; font-size: 20px;&quot;&gt;Do&lt;/font&gt;&lt;font style=&quot;forced-color-adjust: none; color: rgb(0, 0, 0); font-family: Helvetica; font-style: normal; font-variant-ligatures: normal; font-variant-caps: normal; font-weight: 400; letter-spacing: normal; orphans: 2; text-align: center; text-indent: 0px; text-transform: none; widows: 2; word-spacing: 0px; -webkit-text-stroke-width: 0px; white-space: normal; background-color: rgb(251, 251, 251); text-decoration-thickness: initial; text-decoration-style: initial; text-decoration-color: initial; font-size: 20px;&quot;&gt;ne (just check if reduceDone==true)&lt;/font&gt;&lt;/font&gt;" style="text;whiteSpace=wrap;html=1;" parent="1" vertex="1">
          <mxGeometry x="40" y="570" width="360" height="40" as="geometry" />
        </mxCell>
      </root>
    </mxGraphModel>
  </diagram>
</mxfile>
